<mxfile host="65bd71144e">
    <diagram name="ページ1" id="1CsjXldo9rGn5D-Xnixb">
        <mxGraphModel dx="492" dy="323" grid="1" gridSize="10" guides="1" tooltips="1" connect="1" arrows="1" fold="1" page="1" pageScale="1" pageWidth="827" pageHeight="1169" math="0" shadow="0">
            <root>
                <mxCell id="0"/>
                <mxCell id="1" parent="0"/>
                <mxCell id="OHmwZw8C2iARIN1YVzDY-1" value="" style="rounded=0;whiteSpace=wrap;html=1;" parent="1" vertex="1">
                    <mxGeometry x="20" y="40" width="120" height="60" as="geometry"/>
                </mxCell>
                <mxCell id="OHmwZw8C2iARIN1YVzDY-2" value="" style="rounded=0;whiteSpace=wrap;html=1;" parent="1" vertex="1">
                    <mxGeometry x="40" y="220" width="120" height="60" as="geometry"/>
                </mxCell>
                <mxCell id="OHmwZw8C2iARIN1YVzDY-3" value="" style="endArrow=diamondThin;endFill=0;endSize=24;html=1;rounded=0;exitX=0.5;exitY=0;exitDx=0;exitDy=0;entryX=0.5;entryY=1;entryDx=0;entryDy=0;" parent="1" source="OHmwZw8C2iARIN1YVzDY-2" target="OHmwZw8C2iARIN1YVzDY-1" edge="1">
                    <mxGeometry width="160" relative="1" as="geometry">
                        <mxPoint x="60" y="100" as="sourcePoint"/>
                        <mxPoint x="180" y="130" as="targetPoint"/>
                    </mxGeometry>
                </mxCell>
                <mxCell id="OHmwZw8C2iARIN1YVzDY-4" value="支払方法" style="html=1;whiteSpace=wrap;" parent="1" vertex="1">
                    <mxGeometry x="304" y="20" width="110" height="50" as="geometry"/>
                </mxCell>
                <mxCell id="OHmwZw8C2iARIN1YVzDY-5" value="発注者" style="html=1;whiteSpace=wrap;" parent="1" vertex="1">
                    <mxGeometry x="240" y="140" width="110" height="50" as="geometry"/>
                </mxCell>
                <mxCell id="OHmwZw8C2iARIN1YVzDY-6" value="発注者&lt;div&gt;クレジットカード&lt;/div&gt;" style="html=1;whiteSpace=wrap;" parent="1" vertex="1">
                    <mxGeometry x="400" y="140" width="110" height="50" as="geometry"/>
                </mxCell>
                <mxCell id="Z9lCNE3T4ToBdYEy1Mjk-1" value="" style="endArrow=classic;html=1;rounded=0;entryX=0.5;entryY=1;entryDx=0;entryDy=0;" parent="1" target="OHmwZw8C2iARIN1YVzDY-4" edge="1">
                    <mxGeometry relative="1" as="geometry">
                        <mxPoint x="300" y="140" as="sourcePoint"/>
                        <mxPoint x="310" y="270" as="targetPoint"/>
                    </mxGeometry>
                </mxCell>
                <mxCell id="Z9lCNE3T4ToBdYEy1Mjk-2" value="Label" style="edgeLabel;resizable=0;html=1;;align=center;verticalAlign=middle;" parent="Z9lCNE3T4ToBdYEy1Mjk-1" connectable="0" vertex="1">
                    <mxGeometry relative="1" as="geometry"/>
                </mxCell>
                <mxCell id="Z9lCNE3T4ToBdYEy1Mjk-3" value="Source" style="edgeLabel;resizable=0;html=1;;align=left;verticalAlign=bottom;" parent="Z9lCNE3T4ToBdYEy1Mjk-1" connectable="0" vertex="1">
                    <mxGeometry x="-1" relative="1" as="geometry"/>
                </mxCell>
                <mxCell id="Z9lCNE3T4ToBdYEy1Mjk-4" value="" style="endArrow=classic;html=1;rounded=0;exitX=0.5;exitY=0;exitDx=0;exitDy=0;entryX=0.5;entryY=1;entryDx=0;entryDy=0;" parent="1" source="OHmwZw8C2iARIN1YVzDY-6" target="OHmwZw8C2iARIN1YVzDY-4" edge="1">
                    <mxGeometry relative="1" as="geometry">
                        <mxPoint x="360" y="120" as="sourcePoint"/>
                        <mxPoint x="520" y="120" as="targetPoint"/>
                    </mxGeometry>
                </mxCell>
                <mxCell id="Z9lCNE3T4ToBdYEy1Mjk-5" value="Label" style="edgeLabel;resizable=0;html=1;;align=center;verticalAlign=middle;" parent="Z9lCNE3T4ToBdYEy1Mjk-4" connectable="0" vertex="1">
                    <mxGeometry relative="1" as="geometry"/>
                </mxCell>
                <mxCell id="Z9lCNE3T4ToBdYEy1Mjk-6" value="Source" style="edgeLabel;resizable=0;html=1;;align=left;verticalAlign=bottom;" parent="Z9lCNE3T4ToBdYEy1Mjk-4" connectable="0" vertex="1">
                    <mxGeometry x="-1" relative="1" as="geometry"/>
                </mxCell>
                <mxCell id="jgQmWan3id_APqYRhyMe-1" value="" style="rounded=0;whiteSpace=wrap;html=1;" parent="1" vertex="1">
                    <mxGeometry x="470" y="250" width="120" height="60" as="geometry"/>
                </mxCell>
                <mxCell id="2" value="&lt;p style=&quot;margin:0px;margin-top:4px;text-align:center;&quot;&gt;&lt;b&gt;Class&lt;/b&gt;&lt;/p&gt;&lt;hr size=&quot;1&quot; style=&quot;border-style:solid;&quot;/&gt;&lt;p style=&quot;margin:0px;margin-left:4px;&quot;&gt;+ field: Type&lt;/p&gt;&lt;hr size=&quot;1&quot; style=&quot;border-style:solid;&quot;/&gt;&lt;p style=&quot;margin:0px;margin-left:4px;&quot;&gt;+ method(): Type&lt;/p&gt;" style="verticalAlign=top;align=left;overflow=fill;html=1;whiteSpace=wrap;" vertex="1" parent="1">
                    <mxGeometry x="220" y="220" width="160" height="90" as="geometry"/>
                </mxCell>
            </root>
        </mxGraphModel>
    </diagram>
</mxfile>